<svg xmlns="http://www.w3.org/2000/svg" xmlns:xlink="http://www.w3.org/1999/xlink" viewBox="44.99 40.96 166.4 166.4"><g fill="#ffffff" fill-rule="nonzero" stroke="none" stroke-width="1" stroke-linecap="butt" stroke-linejoin="miter" stroke-miterlimit="10" stroke-dasharray="" stroke-dashoffset="0" font-family="none" font-weight="none" font-size="none" text-anchor="none" style="mix-blend-mode: normal"><g transform="scale(2.56,2.56)"><path d="M30.57422,16c-7.168,0 -13,5.832 -13,13v39c0,7.168 5.832,13 13,13h39c7.168,0 13,-5.832 13,-13v-39c0,-7.168 -5.832,-13 -13,-13zM30.57422,18h39c6.065,0 11,4.935 11,11v39c0,6.065 -4.935,11 -11,11h-39c-6.065,0 -11,-4.935 -11,-11v-39c0,-6.065 4.935,-11 11,-11zM33.41211,21c-5.976,0 -10.83789,4.86189 -10.83789,10.83789v33.32422c0,5.976 4.86189,10.83789 10.83789,10.83789h33.32617c5.976,0 10.83594,-4.86189 10.83594,-10.83789v-18.66211c0,-0.276 -0.224,-0.5 -0.5,-0.5c-0.276,0 -0.5,0.224 -0.5,0.5v18.66211c0,5.424 -4.41194,9.83789 -9.83594,9.83789h-33.32617c-5.424,0 -9.83789,-4.41389 -9.83789,-9.83789v-33.32422c0,-5.424 4.41389,-9.83789 9.83789,-9.83789h33.66211c0.276,0 0.5,-0.224 0.5,-0.5c0,-0.276 -0.224,-0.5 -0.5,-0.5zM52.03906,32c-2.443,0.002 -4.33509,0.65917 -5.62109,1.95117c-1.23,1.236 -1.85175,2.96191 -1.84375,5.12891l0.5,0.05664h-0.5v3.86328h-2.5c-0.276,0 -0.5,0.224 -0.5,0.5v5c0,0.276 0.224,0.5 0.5,0.5h2.5v15.5c0,0.276 0.224,0.5 0.5,0.5h7c0.276,0 0.5,-0.224 0.5,-0.5v-15.5h3.61328c0.245,0 0.45319,-0.17792 0.49219,-0.41992c0.004,-0.024 0.39312,-2.43992 0.57812,-5.04492c0.01,-0.139 -0.04077,-0.274 -0.13477,-0.375c-0.094,-0.102 -0.22623,-0.16016 -0.36523,-0.16016h-5.18359v-3.19922c0.001,-0.251 0.47336,-0.80078 0.94336,-0.80078h4.55664c0.276,0 0.5,-0.224 0.5,-0.5v-6c0,-0.276 -0.224,-0.5 -0.5,-0.5zM52.03906,33h4.53516v5h-4.05664c-0.944,0 -1.94336,0.92578 -1.94336,1.80078v3.69922c0,0.276 0.223,0.5 0.5,0.5h5.14453c-0.141,1.718 -0.35394,3.279 -0.46094,4h-3.68359c-0.276,0 -0.5,0.224 -0.5,0.5v15.5h-6v-15.5c0,-0.276 -0.224,-0.5 -0.5,-0.5h-2.5v-4h2.5c0.276,0 0.5,-0.224 0.5,-0.5v-4.36328v-0.06055c-0.007,-1.892 0.51673,-3.37697 1.55273,-4.41797c1.093,-1.098 2.74411,-1.6552 4.91211,-1.6582zM77.07422,36c-0.276,0 -0.5,0.224 -0.5,0.5v2c0,0.276 0.224,0.5 0.5,0.5c0.276,0 0.5,-0.224 0.5,-0.5v-2c0,-0.276 -0.224,-0.5 -0.5,-0.5zM77.07422,40c-0.276,0 -0.5,0.224 -0.5,0.5v4c0,0.276 0.224,0.5 0.5,0.5c0.276,0 0.5,-0.224 0.5,-0.5v-4c0,-0.276 -0.224,-0.5 -0.5,-0.5z"/></g></g></svg>